<svg data-v-2cb57da0="" version="1.0" xmlns="http://www.w3.org/2000/svg" xmlns:xlink="http://www.w3.org/1999/xlink" width="100%" height="100%" viewBox="0 0 340.000000 250.000000" preserveAspectRatio="xMidYMid meet" color-interpolation-filters="sRGB" style="margin: auto;"><rect data-v-2cb57da0="" x="0" y="0" width="100%" height="100%" fill="#cc3333" fill-opacity="1" class="background"></rect> <rect data-v-2cb57da0="" x="0" y="0" width="100%" height="100%" fill="url(#watermark)" fill-opacity="1" class="watermarklayer"></rect> <g data-v-2cb57da0="" fill="#feffff" class="iconbordersvg" transform="translate(106.65730285644531,86.30699920654297)"><g data-gra="graph-icon-name"><g><rect data-gra="graph-name-bg" stroke-width="2" class="i-icon-bg" x="0" y="0" width="126.68539428710938" height="77.38600158691406" fill-opacity="0" stroke="rgb(254, 255, 255)"></rect> <!----> <!----> </g> <g transform="translate(0,0)"><g data-gra="graph-icon" transform="translate(76.55999755859375,0)"><g><rect data-gra="graph-name-bg" stroke-width="2" class="i-icon-bg" x="0" y="0" width="50.12539291381836" height="77.38600158691406" fill-opacity="0"></rect> <!----> <!----> </g> <g transform="translate(5,15.531265258789062)"><g class="iconsvg-imagesvg"><g><!----> <svg filter="url(#colors9851854201)" x="0" y="0" width="40.12539184952978" height="46.32347246540034" filtersec="colorsf8730419350" class="image-svg-svg primary" style="overflow: visible;"><svg xmlns="http://www.w3.org/2000/svg" viewBox="0.7000000000000002 0.7000000000000002 102.40001 117.6"><path d="M8.9 41.8L2.7 31.1l36.4-21 38.4 22.4v54.2m10.7-35.9L41.3 23.7 2.7 45.8v42.1H15m47.6-64.2l-47 27.1-.2 44.5 36.4 21 6.2-10.7M26.2 32.4v54.2L64.6 109 101 88l-6.2-10.7m-79.2-9.1l46.9 27.1 38.6-22.1V31.1H88.8M41.3 95.3l46.9-27.1.2-44.5L52 2.7l-6.2 10.7" fill="none" stroke="#202121" stroke-width="4" stroke-miterlimit="10"></path></svg></svg> <defs><filter id="colors9851854201"><feColorMatrix type="matrix" values="0 0 0 0 0.9921875  0 0 0 0 0.99609375  0 0 0 0 0.99609375  0 0 0 1 0" class="icon-fecolormatrix"></feColorMatrix></filter> <filter id="colorsf8730419350"><feColorMatrix type="matrix" values="0 0 0 0 0.99609375  0 0 0 0 0.99609375  0 0 0 0 0.99609375  0 0 0 1 0" class="icon-fecolormatrix"></feColorMatrix></filter> <filter id="colorsb5335365142"><feColorMatrix type="matrix" values="0 0 0 0 0  0 0 0 0 0  0 0 0 0 0  0 0 0 1 0" class="icon-fecolormatrix"></feColorMatrix></filter></defs></g></g></g></g> <g data-gra="graph-name" transform="translate(0,0)" mask="url(#4fb310cd-464d-475b-bda1-8a1deebe439a)"><g><rect data-gra="graph-name-bg" stroke-width="2" class="i-icon-bg" x="0" y="0" width="76.55999755859375" height="77.38600158691406" fill-opacity="1"></rect> <!----> <!----> </g> <g transform="translate(5,5)"><g data-gra="path-name" fill-rule="" class="tp-name" transform="translate(0,0)"><g transform="scale(1)"><g><path d="M12.74 0L3.97 0 3.97-52.65 12.74-52.65 12.74 0ZM31.13 0.58L31.13 0.58Q27.04 0.58 24.38-0.94 21.71-2.47 20.38-5.4 19.04-8.32 19.04-12.48L19.04-12.48 19.04-25.09Q19.04-29.25 20.38-32.18 21.71-35.1 24.38-36.63 27.04-38.16 31.13-38.16L31.13-38.16Q35.23-38.16 37.93-36.63 40.63-35.1 41.96-32.18 43.29-29.25 43.29-25.09L43.29-25.09 43.29-12.48Q43.29-8.32 41.96-5.4 40.63-2.47 37.93-0.94 35.23 0.58 31.13 0.58ZM31.2-5.53L31.2-5.53Q32.7-5.53 33.41-6.37 34.13-7.21 34.32-8.68 34.52-10.14 34.52-11.89L34.52-11.89 34.52-25.68Q34.52-27.43 34.32-28.86 34.13-30.29 33.41-31.17 32.7-32.05 31.2-32.05L31.2-32.05Q29.7-32.05 28.99-31.17 28.27-30.29 28.05-28.86 27.82-27.43 27.82-25.68L27.82-25.68 27.82-11.89Q27.82-10.14 28.05-8.68 28.27-7.21 28.99-6.37 29.7-5.53 31.2-5.53ZM59.54 0.58L59.54 0.58Q54.8 0.58 51.74-1.95 48.68-4.49 47.38-9.36L47.38-9.36 53.95-11.89Q54.73-8.84 56.03-7.21 57.33-5.59 59.41-5.59L59.41-5.59Q60.97-5.59 61.75-6.37 62.53-7.15 62.53-8.52L62.53-8.52Q62.53-10.08 61.59-11.34 60.64-12.61 58.37-14.5L58.37-14.5 53.82-18.33Q51.35-20.48 49.82-22.72 48.3-24.96 48.3-28.34L48.3-28.34Q48.3-31.39 49.69-33.57 51.09-35.75 53.53-36.95 55.96-38.16 58.95-38.16L58.95-38.16Q63.5-38.16 66.27-35.46 69.03-32.76 69.81-28.41L69.81-28.41 64.03-25.94Q63.7-27.5 63.08-28.83 62.47-30.16 61.49-31.01 60.52-31.85 59.21-31.85L59.21-31.85Q57.85-31.85 57.04-31.01 56.22-30.16 56.22-28.86L56.22-28.86Q56.22-27.76 57.17-26.59 58.11-25.41 59.86-23.92L59.86-23.92 64.48-19.76Q65.97-18.46 67.34-16.96 68.7-15.47 69.61-13.62 70.53-11.77 70.53-9.36L70.53-9.36Q70.53-6.11 69.06-3.9 67.6-1.69 65.1-0.55 62.59 0.58 59.54 0.58Z" transform="translate(-3.9700000286102295, 52.650001525878906)"></path></g> <!----> <!----> <!----> <!----> <!----> <!----> <!----></g></g> <g data-gra="path-slogan" fill-rule="" class="tp-slogan" fill="" transform="translate(7.369998931884766,59.230003356933594)"><!----> <!----> <g transform="scale(1, 1)"><g transform="scale(1)"><path d="M0.62-3.94C0.62-3.30 0.71-2.72 0.89-2.21C1.06-1.71 1.31-1.28 1.62-0.93C1.93-0.58 2.30-0.32 2.74-0.13C3.17 0.05 3.64 0.14 4.16 0.14C4.69 0.14 5.17 0.06 5.59-0.11C6.01-0.29 6.34-0.50 6.60-0.77L6.60-4.08L4.02-4.08L4.02-3.25L5.69-3.25L5.69-1.20C5.53-1.06 5.32-0.94 5.07-0.86C4.82-0.77 4.55-0.73 4.27-0.73C3.85-0.73 3.47-0.81 3.15-0.96C2.83-1.11 2.55-1.33 2.33-1.61C2.11-1.89 1.95-2.23 1.83-2.62C1.71-3.02 1.66-3.46 1.66-3.96C1.66-4.45 1.72-4.89 1.84-5.28C1.97-5.67 2.14-6.01 2.36-6.28C2.59-6.56 2.86-6.77 3.18-6.92C3.50-7.07 3.86-7.14 4.26-7.14C4.66-7.14 4.99-7.07 5.25-6.93C5.51-6.79 5.74-6.62 5.94-6.41L6.50-7.04C6.27-7.28 5.97-7.51 5.61-7.71C5.25-7.91 4.79-8.02 4.25-8.02C3.72-8.02 3.24-7.92 2.80-7.73C2.36-7.55 1.97-7.28 1.65-6.92C1.33-6.57 1.07-6.14 0.89-5.64C0.71-5.14 0.62-4.57 0.62-3.94ZM8.48-7.87L8.48 0L13.14 0L13.14-0.85L9.48-0.85L9.48-3.71L12.47-3.71L12.47-4.56L9.48-4.56L9.48-7.03L13.02-7.03L13.02-7.87ZM16.44-7.03L16.44 0L17.45 0L17.45-7.03L19.82-7.03L19.82-7.87L14.06-7.87L14.06-7.03ZM27.01-3.20L24.65-3.20L25.02-4.40C25.16-4.84 25.30-5.28 25.43-5.72C25.56-6.15 25.68-6.60 25.80-7.06L25.85-7.06C25.98-6.60 26.10-6.15 26.23-5.72C26.36-5.28 26.50-4.84 26.64-4.40ZM27.26-2.40L28.01 0L29.08 0L26.41-7.87L25.28-7.87L22.62 0L23.64 0L24.40-2.40ZM32.62-7.87L32.62 0L37.06 0L37.06-0.85L33.61-0.85L33.61-7.87ZM38.45-7.87L38.45 0L39.44 0L39.44-7.87ZM40.52-7.87L43.04 0L44.21 0L46.70-7.87L45.68-7.87L44.42-3.62C44.29-3.15 44.16-2.72 44.05-2.32C43.94-1.92 43.81-1.48 43.67-1.02L43.62-1.02C43.47-1.48 43.34-1.92 43.23-2.32C43.12-2.72 43.00-3.15 42.85-3.62L41.59-7.87ZM47.78-7.87L47.78 0L52.44 0L52.44-0.85L48.78-0.85L48.78-3.71L51.77-3.71L51.77-4.56L48.78-4.56L48.78-7.03L52.32-7.03L52.32-7.87Z" transform="translate(-0.624, 8.016)"></path></g></g></g></g></g></g></g></g><mask id="4fb310cd-464d-475b-bda1-8a1deebe439a"><g fill="white"><rect data-gra="graph-name-bg" stroke-width="2" class="i-icon-bg" x="0" y="0" width="76.55999755859375" height="77.38600158691406" fill-opacity="1"></rect>   </g> <g transform="translate(5,5)" fill="black"><g data-gra="path-name" fill-rule="" class="tp-name" transform="translate(0,0)"><g transform="scale(1)"><g><path d="M12.74 0L3.97 0 3.97-52.65 12.74-52.65 12.74 0ZM31.13 0.58L31.13 0.58Q27.04 0.58 24.38-0.94 21.71-2.47 20.38-5.4 19.04-8.32 19.04-12.48L19.04-12.48 19.04-25.09Q19.04-29.25 20.38-32.18 21.71-35.1 24.38-36.63 27.04-38.16 31.13-38.16L31.13-38.16Q35.23-38.16 37.93-36.63 40.63-35.1 41.96-32.18 43.29-29.25 43.29-25.09L43.29-25.09 43.29-12.48Q43.29-8.32 41.96-5.4 40.63-2.47 37.93-0.94 35.23 0.58 31.13 0.58ZM31.2-5.53L31.2-5.53Q32.7-5.53 33.41-6.37 34.13-7.21 34.32-8.68 34.52-10.14 34.52-11.89L34.52-11.89 34.52-25.68Q34.52-27.43 34.32-28.86 34.13-30.29 33.41-31.17 32.7-32.05 31.2-32.05L31.2-32.05Q29.7-32.05 28.99-31.17 28.27-30.29 28.05-28.86 27.82-27.43 27.82-25.68L27.82-25.68 27.82-11.89Q27.82-10.14 28.05-8.68 28.27-7.21 28.99-6.37 29.7-5.53 31.2-5.53ZM59.54 0.58L59.54 0.58Q54.8 0.58 51.74-1.95 48.68-4.49 47.38-9.36L47.38-9.36 53.95-11.89Q54.73-8.84 56.03-7.21 57.33-5.59 59.41-5.59L59.41-5.59Q60.97-5.59 61.75-6.37 62.53-7.15 62.53-8.52L62.53-8.52Q62.53-10.08 61.59-11.34 60.64-12.61 58.37-14.5L58.37-14.5 53.82-18.33Q51.35-20.48 49.82-22.72 48.3-24.96 48.3-28.34L48.3-28.34Q48.3-31.39 49.69-33.57 51.09-35.75 53.53-36.95 55.96-38.16 58.95-38.16L58.95-38.16Q63.5-38.16 66.27-35.46 69.03-32.76 69.81-28.41L69.81-28.41 64.03-25.94Q63.7-27.5 63.08-28.83 62.47-30.16 61.49-31.01 60.52-31.85 59.21-31.85L59.21-31.85Q57.85-31.85 57.04-31.01 56.22-30.16 56.22-28.86L56.22-28.86Q56.22-27.76 57.17-26.59 58.11-25.41 59.86-23.92L59.86-23.92 64.48-19.76Q65.97-18.46 67.34-16.96 68.7-15.47 69.61-13.62 70.53-11.77 70.53-9.36L70.53-9.36Q70.53-6.11 69.06-3.9 67.6-1.69 65.1-0.55 62.59 0.58 59.54 0.58Z" transform="translate(-3.9700000286102295, 52.650001525878906)"></path></g>       </g></g> <g data-gra="path-slogan" fill-rule="" class="tp-slogan" transform="translate(7.369998931884766,59.230003356933594)">  <g transform="scale(1, 1)"><g transform="scale(1)"><path d="M0.62-3.94C0.62-3.30 0.71-2.72 0.89-2.21C1.06-1.71 1.31-1.28 1.62-0.93C1.93-0.58 2.30-0.32 2.74-0.13C3.17 0.05 3.64 0.14 4.16 0.14C4.69 0.14 5.17 0.06 5.59-0.11C6.01-0.29 6.34-0.50 6.60-0.77L6.60-4.08L4.02-4.08L4.02-3.25L5.69-3.25L5.69-1.20C5.53-1.06 5.32-0.94 5.07-0.86C4.82-0.77 4.55-0.73 4.27-0.73C3.85-0.73 3.47-0.81 3.15-0.96C2.83-1.11 2.55-1.33 2.33-1.61C2.11-1.89 1.95-2.23 1.83-2.62C1.71-3.02 1.66-3.46 1.66-3.96C1.66-4.45 1.72-4.89 1.84-5.28C1.97-5.67 2.14-6.01 2.36-6.28C2.59-6.56 2.86-6.77 3.18-6.92C3.50-7.07 3.86-7.14 4.26-7.14C4.66-7.14 4.99-7.07 5.25-6.93C5.51-6.79 5.74-6.62 5.94-6.41L6.50-7.04C6.27-7.28 5.97-7.51 5.61-7.71C5.25-7.91 4.79-8.02 4.25-8.02C3.72-8.02 3.24-7.92 2.80-7.73C2.36-7.55 1.97-7.28 1.65-6.92C1.33-6.57 1.07-6.14 0.89-5.64C0.71-5.14 0.62-4.57 0.62-3.94ZM8.48-7.87L8.48 0L13.14 0L13.14-0.85L9.48-0.85L9.48-3.71L12.47-3.71L12.47-4.56L9.48-4.56L9.48-7.03L13.02-7.03L13.02-7.87ZM16.44-7.03L16.44 0L17.45 0L17.45-7.03L19.82-7.03L19.82-7.87L14.06-7.87L14.06-7.03ZM27.01-3.20L24.65-3.20L25.02-4.40C25.16-4.84 25.30-5.28 25.43-5.72C25.56-6.15 25.68-6.60 25.80-7.06L25.85-7.06C25.98-6.60 26.10-6.15 26.23-5.72C26.36-5.28 26.50-4.84 26.64-4.40ZM27.26-2.40L28.01 0L29.08 0L26.41-7.87L25.28-7.87L22.62 0L23.64 0L24.40-2.40ZM32.62-7.87L32.62 0L37.06 0L37.06-0.85L33.61-0.85L33.61-7.87ZM38.45-7.87L38.45 0L39.44 0L39.44-7.87ZM40.52-7.87L43.04 0L44.21 0L46.70-7.87L45.68-7.87L44.42-3.62C44.29-3.15 44.16-2.72 44.05-2.32C43.94-1.92 43.81-1.48 43.67-1.02L43.62-1.02C43.47-1.48 43.34-1.92 43.23-2.32C43.12-2.72 43.00-3.15 42.85-3.62L41.59-7.87ZM47.78-7.87L47.78 0L52.44 0L52.44-0.85L48.78-0.85L48.78-3.71L51.77-3.71L51.77-4.56L48.78-4.56L48.78-7.03L52.32-7.03L52.32-7.87Z" transform="translate(-0.624, 8.016)"></path></g></g></g></g></mask><defs v-gra="od"></defs></svg>